<svg width="52" height="27" viewBox="0 0 52 27" fill="none" xmlns="http://www.w3.org/2000/svg">
<path d="M34.2 1H12.96C12.24 1 11.61 1.61403 11.61 2.31579V21C11.61 21.7017 12.24 22.3158 12.96 22.3158H16.2C16.83 24.421 18.72 25.9123 21.06 25.9123C23.4 25.9123 25.29 24.421 25.92 22.3158H34.2C34.92 22.3158 35.55 21.7017 35.55 21V2.31579C35.55 1.61403 34.92 1 34.2 1ZM21.06 23.2807C19.8 23.2807 18.72 22.2281 18.72 21C18.72 19.7719 19.8 18.7193 21.06 18.7193C22.32 18.7193 23.4 19.7719 23.4 21C23.4 22.2281 22.32 23.2807 21.06 23.2807ZM33.3636 19.6842H25.83C25.2 17.5789 23.31 16.0877 20.97 16.0877C18.63 16.0877 16.74 17.5789 16.11 19.6842H14.22V3.63158H32.76V19.6842H33.3636ZM9.24 6.08772H4.38C3.66 6.08772 3.03 5.47368 3.03 4.77193C3.03 4.07017 3.66 3.45614 4.38 3.45614H9.24C9.96 3.45614 10.59 4.07017 10.59 4.77193C10.59 5.47368 10.05 6.08772 9.24 6.08772ZM7.21 11.614H2.35C1.63 11.614 1 11 1 10.2982C1 9.59649 1.63 8.98246 2.35 8.98246H7.21C7.93 8.98246 8.56 9.59649 8.56 10.2982C8.56 11 7.93 11.614 7.21 11.614ZM11.44 15.8246C11.44 16.5263 10.81 17.1404 10.09 17.1404H5.23C4.51 17.1404 3.88 16.5263 3.88 15.8246C3.88 15.1228 4.51 14.5088 5.23 14.5088H10.09C10.81 14.5088 11.44 15.1228 11.44 15.8246ZM50.85 13.6316L45.27 5.21053C45 4.85965 44.55 4.59649 44.1 4.59649H37.35V7.22807H43.38L48.33 14.7719V19.7719H47.25C46.62 17.6667 44.73 16.1754 42.39 16.1754C39.6 16.1754 37.35 18.3684 37.35 21.0877C37.35 23.807 39.6 26 42.39 26C44.73 26 46.62 24.5088 47.25 22.4035H49.68C50.4 22.4035 51.03 21.7895 51.03 21.0877V14.3333C51.03 14.0702 50.94 13.807 50.85 13.6316ZM42.39 23.2807C41.13 23.2807 40.05 22.2281 40.05 21C40.05 19.7719 41.13 18.7193 42.39 18.7193C43.65 18.7193 44.73 19.7719 44.73 21C44.73 22.2281 43.65 23.2807 42.39 23.2807Z" fill="white" stroke="#7DB945" stroke-width="1.2" stroke-linecap="square"/>
</svg>
