<svg width="20" height="20" viewBox="0 0 20 20" fill="none" xmlns="http://www.w3.org/2000/svg">
<path d="M7.84703 7.732H2.62703C1.29503 7.732 0.467031 8.596 0.467031 9.892C0.467031 11.188 1.29503 12.052 2.62703 12.052H7.84703V17.272C7.84703 18.568 8.67503 19.432 10.007 19.432C11.339 19.432 12.167 18.568 12.167 17.272V12.052H17.387C18.719 12.052 19.547 11.188 19.547 9.892C19.547 8.596 18.719 7.732 17.387 7.732H12.167V2.512C12.167 1.216 11.339 0.352 10.007 0.352C8.67503 0.352 7.84703 1.216 7.84703 2.512V7.732Z" fill="#26303B"/>
</svg>
