<svg width="34" height="22" viewBox="0 0 34 22" fill="none" xmlns="http://www.w3.org/2000/svg">
<mask id="path-1-inside-1" fill="white">
<path fill-rule="evenodd" clip-rule="evenodd" d="M33.8462 1C33.8462 0.447715 33.3984 0 32.8462 0H1C0.447715 0 0 0.447715 0 1V7.74309C0 8.16424 0.425418 8.46149 0.846567 8.46149C2.24852 8.46149 3.38503 9.59799 3.38503 10.9999C3.38503 12.4019 2.24852 13.5384 0.846567 13.5384C0.425418 13.5384 0 13.8357 0 14.2568V21C0 21.5523 0.447714 22 0.999999 22H32.8462C33.3984 22 33.8462 21.5523 33.8462 21V1Z"/>
</mask>
<path d="M0.846567 12.0384C0.01814 12.0384 -0.653433 12.71 -0.653433 13.5384C-0.653433 14.3668 0.01814 15.0384 0.846567 15.0384V12.0384ZM1 1.5H32.8462V-1.5H1V1.5ZM1.5 7.74309V1H-1.5V7.74309H1.5ZM0.846567 9.96149C1.42009 9.96149 1.88503 10.4264 1.88503 10.9999H4.88503C4.88503 8.76957 3.07695 6.96149 0.846567 6.96149V9.96149ZM1.88503 10.9999C1.88503 11.5735 1.42009 12.0384 0.846567 12.0384V15.0384C3.07695 15.0384 4.88503 13.2303 4.88503 10.9999H1.88503ZM1.5 21V14.2568H-1.5V21H1.5ZM32.8462 20.5H0.999999V23.5H32.8462V20.5ZM32.3462 1V21H35.3462V1H32.3462ZM32.8462 23.5C34.2269 23.5 35.3462 22.3807 35.3462 21H32.3462C32.3462 20.7239 32.57 20.5 32.8462 20.5V23.5ZM-1.5 21C-1.5 22.3807 -0.380715 23.5 0.999999 23.5V20.5C1.27614 20.5 1.5 20.7239 1.5 21H-1.5ZM-1.5 7.74309C-1.5 8.49814 -1.11082 9.08089 -0.670592 9.4324C-0.241857 9.77473 0.30095 9.96149 0.846567 9.96149V6.96149C0.971035 6.96149 1.09056 6.99962 1.2013 7.08804C1.32353 7.18564 1.5 7.40919 1.5 7.74309H-1.5ZM0.846567 12.0384C0.300949 12.0384 -0.241858 12.2252 -0.670593 12.5675C-1.11082 12.919 -1.5 13.5018 -1.5 14.2568H1.5C1.5 14.5907 1.32353 14.8143 1.2013 14.9119C1.09056 15.0003 0.971036 15.0384 0.846567 15.0384V12.0384ZM32.8462 1.5C32.57 1.5 32.3462 1.27614 32.3462 1H35.3462C35.3462 -0.38071 34.2269 -1.5 32.8462 -1.5V1.5ZM1 -1.5C-0.380711 -1.5 -1.5 -0.380713 -1.5 1H1.5C1.5 1.27614 1.27614 1.5 1 1.5V-1.5Z" fill="white" mask="url(#path-1-inside-1)"/>
<rect x="9" y="3" width="1" height="3" fill="white" stroke="white" stroke-width="0.5"/>
<rect x="9" y="8" width="1" height="3" fill="white" stroke="white" stroke-width="0.5"/>
<rect x="9" y="13" width="1" height="3" fill="white" stroke="white" stroke-width="0.5"/>
<rect x="9" y="18" width="1" height="3" fill="white" stroke="white" stroke-width="0.5"/>
<path d="M19.7658 9.49371C20.878 9.49371 21.7796 8.59209 21.7796 7.47989C21.7796 6.36769 20.878 5.46606 19.7658 5.46606C18.6536 5.46606 17.752 6.36769 17.752 7.47989C17.752 8.59209 18.6536 9.49371 19.7658 9.49371Z" stroke="white" stroke-width="1.2"/>
<path d="M26.3947 16.2908C27.5069 16.2908 28.4085 15.3892 28.4085 14.277C28.4085 13.1648 27.5069 12.2632 26.3947 12.2632C25.2825 12.2632 24.3809 13.1648 24.3809 14.277C24.3809 15.3892 25.2825 16.2908 26.3947 16.2908Z" stroke="white" stroke-width="1.2"/>
<path d="M28.7687 6.3862C29.0239 6.13101 29.0239 5.71725 28.7687 5.46206C28.5135 5.20687 28.0998 5.20689 27.8446 5.46208L17.4628 15.8438C17.2077 16.099 17.2077 16.5127 17.4629 16.7679C17.718 17.0231 18.1318 17.0231 18.387 16.7679L28.7687 6.3862Z" fill="white"/>
</svg>
